<?xml version="1.0" standalone="no"?>
<!DOCTYPE svg PUBLIC "-//W3C//DTD SVG 20010904//EN"
 "http://www.w3.org/TR/2001/REC-SVG-20010904/DTD/svg10.dtd">
<svg version="1.0" xmlns="http://www.w3.org/2000/svg"
 width="76.000000pt" height="76.000000pt" viewBox="0 0 76.000000 76.000000"
 preserveAspectRatio="xMidYMid meet">
<metadata>
Created by potrace 1.11, written by Peter Selinger 2001-2013
</metadata>
<g transform="translate(0.000000,76.000000) scale(0.100000,-0.100000)"
fill="#000000" stroke="none">
<path d="M32 714 c-17 -12 -22 -25 -22 -58 0 -83 -7 -81 295 -84 314 -3 315
-3 315 77 0 82 4 81 -301 81 -223 0 -268 -2 -287 -16z m552 -10 c11 -4 16 -19
16 -49 0 -24 -3 -46 -7 -48 -5 -3 -92 -8 -195 -12 l-188 -8 0 62 0 61 179 0
c99 0 186 -3 195 -6z"/>
<path d="M410 655 l0 -45 91 0 90 0 -3 43 -3 42 -87 3 -88 3 0 -46z"/>
<path d="M665 661 c-10 -17 4 -31 31 -31 23 0 24 -3 24 -65 l0 -65 -212 -2
-213 -3 -3 -74 c-2 -55 -8 -80 -22 -99 -17 -21 -20 -41 -20 -136 0 -122 12
-156 54 -156 41 0 46 16 46 156 0 105 -3 134 -15 144 -10 8 -15 31 -15 71 l0
59 215 0 216 0 -3 103 -3 102 -37 3 c-20 2 -39 -2 -43 -7z m-344 -341 c17 -10
19 -22 19 -134 0 -101 -3 -126 -16 -137 -11 -9 -20 -10 -32 -2 -14 8 -17 31
-20 133 -2 81 1 127 9 136 14 17 15 17 40 4z"/>
</g>
</svg>
